<svg id="visual" viewBox="0 0 960 540" width="960" height="540" xmlns="http://www.w3.org/2000/svg" xmlns:xlink="http://www.w3.org/1999/xlink" version="1.1"><rect x="0" y="0" width="960" height="540" fill="#D9C5B2"></rect><path d="M0 269L22.8 275C45.7 281 91.3 293 137 288.2C182.7 283.3 228.3 261.7 274 250.7C319.7 239.7 365.3 239.3 411.2 246.2C457 253 503 267 548.8 262C594.7 257 640.3 233 686 234C731.7 235 777.3 261 823 268.3C868.7 275.7 914.3 264.3 937.2 258.7L960 253L960 0L937.2 0C914.3 0 868.7 0 823 0C777.3 0 731.7 0 686 0C640.3 0 594.7 0 548.8 0C503 0 457 0 411.2 0C365.3 0 319.7 0 274 0C228.3 0 182.7 0 137 0C91.3 0 45.7 0 22.8 0L0 0Z" fill="#7e7f83"></path><path d="M0 195L22.8 188C45.7 181 91.3 167 137 171.3C182.7 175.7 228.3 198.3 274 198C319.7 197.7 365.3 174.3 411.2 174.8C457 175.3 503 199.7 548.8 204.7C594.7 209.7 640.3 195.3 686 187.7C731.7 180 777.3 179 823 187.3C868.7 195.7 914.3 213.3 937.2 222.2L960 231L960 0L937.2 0C914.3 0 868.7 0 823 0C777.3 0 731.7 0 686 0C640.3 0 594.7 0 548.8 0C503 0 457 0 411.2 0C365.3 0 319.7 0 274 0C228.3 0 182.7 0 137 0C91.3 0 45.7 0 22.8 0L0 0Z" fill="#6c6a6d"></path><path d="M0 109L22.8 118C45.7 127 91.3 145 137 146.2C182.7 147.3 228.3 131.7 274 126.2C319.7 120.7 365.3 125.3 411.2 134.2C457 143 503 156 548.8 165.3C594.7 174.7 640.3 180.3 686 185.3C731.7 190.3 777.3 194.7 823 185.5C868.7 176.3 914.3 153.7 937.2 142.3L960 131L960 0L937.2 0C914.3 0 868.7 0 823 0C777.3 0 731.7 0 686 0C640.3 0 594.7 0 548.8 0C503 0 457 0 411.2 0C365.3 0 319.7 0 274 0C228.3 0 182.7 0 137 0C91.3 0 45.7 0 22.8 0L0 0Z" fill="#5b5557"></path><path d="M0 107L22.8 105.8C45.7 104.7 91.3 102.3 137 99.3C182.7 96.3 228.3 92.7 274 96C319.7 99.3 365.3 109.7 411.2 113.8C457 118 503 116 548.8 112C594.7 108 640.3 102 686 96.7C731.7 91.3 777.3 86.7 823 93.7C868.7 100.7 914.3 119.3 937.2 128.7L960 138L960 0L937.2 0C914.3 0 868.7 0 823 0C777.3 0 731.7 0 686 0C640.3 0 594.7 0 548.8 0C503 0 457 0 411.2 0C365.3 0 319.7 0 274 0C228.3 0 182.7 0 137 0C91.3 0 45.7 0 22.8 0L0 0Z" fill="#484241"></path><path d="M0 38L22.8 40.2C45.7 42.3 91.3 46.7 137 48.3C182.7 50 228.3 49 274 55C319.7 61 365.3 74 411.2 79.5C457 85 503 83 548.8 76.8C594.7 70.7 640.3 60.3 686 53.2C731.7 46 777.3 42 823 45.8C868.7 49.7 914.3 61.3 937.2 67.2L960 73L960 0L937.2 0C914.3 0 868.7 0 823 0C777.3 0 731.7 0 686 0C640.3 0 594.7 0 548.8 0C503 0 457 0 411.2 0C365.3 0 319.7 0 274 0C228.3 0 182.7 0 137 0C91.3 0 45.7 0 22.8 0L0 0Z" fill="#34312d"></path></svg>